<svg xmlns="http://www.w3.org/2000/svg" width="21.156" height="21.189" viewBox="0 0 21.156 21.189"><defs><style>.a{fill:#2b2b2b;}</style></defs><g transform="translate(0 0)"><path class="a" d="M23.6,6.654A5.41,5.41,0,0,0,20.5,3.562a7.761,7.761,0,0,0-2.568-.493C16.805,3.019,16.447,3,13.578,3s-3.237,0-4.359.063a7.7,7.7,0,0,0-2.566.493A5.4,5.4,0,0,0,3.56,6.654a7.736,7.736,0,0,0-.492,2.568C3.017,10.352,3,10.711,3,13.581s0,3.234.066,4.359a7.749,7.749,0,0,0,.492,2.569A5.416,5.416,0,0,0,6.655,23.6a7.735,7.735,0,0,0,2.567.529c1.131.049,1.49.065,4.359.065s3.237,0,4.359-.065a7.772,7.772,0,0,0,2.568-.492A5.419,5.419,0,0,0,23.6,20.544a7.736,7.736,0,0,0,.492-2.568c.051-1.13.066-1.489.066-4.359s0-3.234-.066-4.359A7.732,7.732,0,0,0,23.6,6.654Zm-1.431,11.2a5.925,5.925,0,0,1-.365,1.983,3.509,3.509,0,0,1-2.011,2.01,5.856,5.856,0,0,1-1.962.365c-1.116.052-1.431.065-4.293.065s-3.157,0-4.294-.065a5.827,5.827,0,0,1-1.961-.365,3.507,3.507,0,0,1-2.02-2.01A5.968,5.968,0,0,1,4.9,17.875c-.051-1.116-.062-1.431-.062-4.293s0-3.156.062-4.294a5.919,5.919,0,0,1,.365-1.982,3.508,3.508,0,0,1,2.02-2.011,5.886,5.886,0,0,1,1.961-.365c1.117-.051,1.431-.065,4.294-.065s3.157,0,4.293.065a5.827,5.827,0,0,1,1.962.365A3.514,3.514,0,0,1,21.8,7.306a5.968,5.968,0,0,1,.365,1.961c.051,1.117.063,1.431.063,4.294s0,3.17-.051,4.293h-.013Z" transform="translate(-3.002 -3.005)"/></g></svg>